<mxfile host="65bd71144e">
    <diagram id="wzahS-m14zF1gMaP5sKf" name="Page-1">
        <mxGraphModel dx="3627" dy="1969" grid="1" gridSize="10" guides="1" tooltips="1" connect="1" arrows="1" fold="1" page="1" pageScale="1" pageWidth="850" pageHeight="1100" math="0" shadow="0">
            <root>
                <mxCell id="0"/>
                <mxCell id="1" parent="0"/>
                <mxCell id="41" value="" style="edgeStyle=none;shape=flexArrow;html=1;strokeColor=#000000;fillColor=#000000;" edge="1" parent="1" source="2" target="15">
                    <mxGeometry relative="1" as="geometry"/>
                </mxCell>
                <mxCell id="2" value="Parents" style="rounded=0;whiteSpace=wrap;html=1;" vertex="1" parent="1">
                    <mxGeometry x="-885" y="-520" width="130" height="60" as="geometry"/>
                </mxCell>
                <mxCell id="3" value="students" style="rounded=0;whiteSpace=wrap;html=1;" vertex="1" parent="1">
                    <mxGeometry x="-885" y="-190" width="130" height="60" as="geometry"/>
                </mxCell>
                <mxCell id="4" value="Payments" style="rounded=0;whiteSpace=wrap;html=1;" vertex="1" parent="1">
                    <mxGeometry x="500" y="430" width="120" height="60" as="geometry"/>
                </mxCell>
                <mxCell id="10" value="Adresses" style="rounded=0;whiteSpace=wrap;html=1;" vertex="1" parent="1">
                    <mxGeometry x="490" y="20" width="120" height="60" as="geometry"/>
                </mxCell>
                <mxCell id="13" value="Check_ins" style="rounded=0;whiteSpace=wrap;html=1;" vertex="1" parent="1">
                    <mxGeometry x="-1270" y="80" width="120" height="60" as="geometry"/>
                </mxCell>
                <mxCell id="14" value="check_outs" style="rounded=0;whiteSpace=wrap;html=1;" vertex="1" parent="1">
                    <mxGeometry x="700" y="390" width="120" height="60" as="geometry"/>
                </mxCell>
                <mxCell id="15" value="have" style="rhombus;whiteSpace=wrap;html=1;rounded=0;" vertex="1" parent="1">
                    <mxGeometry x="-892.5" y="-350" width="145" height="60" as="geometry"/>
                </mxCell>
                <mxCell id="30" value="cell_phone" style="ellipse;whiteSpace=wrap;html=1;rounded=0;" vertex="1" parent="1">
                    <mxGeometry x="-670" y="-410" width="120" height="60" as="geometry"/>
                </mxCell>
                <mxCell id="34" value="&lt;u&gt;email&lt;/u&gt;" style="ellipse;whiteSpace=wrap;html=1;rounded=0;rotation=0;" vertex="1" parent="1">
                    <mxGeometry x="-670" y="-630" width="120" height="60" as="geometry"/>
                </mxCell>
                <mxCell id="36" value="Name" style="ellipse;whiteSpace=wrap;html=1;rounded=0;" vertex="1" parent="1">
                    <mxGeometry x="-1095" y="-460" width="120" height="60" as="geometry"/>
                </mxCell>
                <mxCell id="38" value="" style="endArrow=none;html=1;strokeColor=#000000;fillColor=#000000;shape=flexArrow;exitX=1;exitY=0.5;exitDx=0;exitDy=0;entryX=0;entryY=1;entryDx=0;entryDy=0;" edge="1" parent="1" source="36" target="2">
                    <mxGeometry width="50" height="50" relative="1" as="geometry">
                        <mxPoint x="-1125" y="-520" as="sourcePoint"/>
                        <mxPoint x="-890" y="-470" as="targetPoint"/>
                    </mxGeometry>
                </mxCell>
                <mxCell id="39" value="" style="endArrow=none;html=1;strokeColor=#000000;fillColor=#000000;shape=flexArrow;entryX=0.067;entryY=0.833;entryDx=0;entryDy=0;exitX=1;exitY=0;exitDx=0;exitDy=0;entryPerimeter=0;" edge="1" parent="1" source="2" target="34">
                    <mxGeometry width="50" height="50" relative="1" as="geometry">
                        <mxPoint x="-845" y="-540" as="sourcePoint"/>
                        <mxPoint x="-785" y="-590" as="targetPoint"/>
                    </mxGeometry>
                </mxCell>
                <mxCell id="40" value="" style="endArrow=none;html=1;strokeColor=#000000;fillColor=#000000;shape=flexArrow;exitX=1;exitY=1;exitDx=0;exitDy=0;entryX=0;entryY=0.5;entryDx=0;entryDy=0;" edge="1" parent="1" source="2" target="30">
                    <mxGeometry width="50" height="50" relative="1" as="geometry">
                        <mxPoint x="-747.5" y="-490.5" as="sourcePoint"/>
                        <mxPoint x="-652.5" y="-490" as="targetPoint"/>
                    </mxGeometry>
                </mxCell>
                <mxCell id="51" value="" style="edgeStyle=none;html=1;strokeColor=#000000;fillColor=#000000;shape=flexArrow;" edge="1" parent="1" source="42" target="48">
                    <mxGeometry relative="1" as="geometry"/>
                </mxCell>
                <mxCell id="42" value="user_account" style="rounded=0;whiteSpace=wrap;html=1;" vertex="1" parent="1">
                    <mxGeometry x="-880" y="-770" width="120" height="60" as="geometry"/>
                </mxCell>
                <mxCell id="43" value="password" style="ellipse;whiteSpace=wrap;html=1;" vertex="1" parent="1">
                    <mxGeometry x="-700" y="-930" width="120" height="80" as="geometry"/>
                </mxCell>
                <mxCell id="44" value="&lt;u&gt;username&lt;/u&gt;" style="ellipse;whiteSpace=wrap;html=1;" vertex="1" parent="1">
                    <mxGeometry x="-1070" y="-930" width="120" height="80" as="geometry"/>
                </mxCell>
                <mxCell id="46" value="" style="endArrow=none;html=1;strokeColor=#000000;fillColor=#000000;shape=flexArrow;entryX=1;entryY=1;entryDx=0;entryDy=0;exitX=0;exitY=0;exitDx=0;exitDy=0;" edge="1" parent="1" source="42" target="44">
                    <mxGeometry width="50" height="50" relative="1" as="geometry">
                        <mxPoint x="-680" y="-770" as="sourcePoint"/>
                        <mxPoint x="-630" y="-820" as="targetPoint"/>
                    </mxGeometry>
                </mxCell>
                <mxCell id="47" value="" style="endArrow=none;html=1;strokeColor=#000000;fillColor=#000000;shape=flexArrow;entryX=0;entryY=1;entryDx=0;entryDy=0;exitX=1;exitY=0;exitDx=0;exitDy=0;" edge="1" parent="1" source="42" target="43">
                    <mxGeometry width="50" height="50" relative="1" as="geometry">
                        <mxPoint x="-680" y="-770" as="sourcePoint"/>
                        <mxPoint x="-630" y="-820" as="targetPoint"/>
                    </mxGeometry>
                </mxCell>
                <mxCell id="48" value="has&amp;nbsp; a" style="rhombus;whiteSpace=wrap;html=1;" vertex="1" parent="1">
                    <mxGeometry x="-892.5" y="-640" width="145" height="60" as="geometry"/>
                </mxCell>
                <mxCell id="50" value="" style="endArrow=none;html=1;strokeColor=#000000;fillColor=#000000;entryX=0.5;entryY=1;entryDx=0;entryDy=0;exitX=0.5;exitY=0;exitDx=0;exitDy=0;" edge="1" parent="1" source="2" target="48">
                    <mxGeometry width="50" height="50" relative="1" as="geometry">
                        <mxPoint x="-820" y="-520" as="sourcePoint"/>
                        <mxPoint x="-670" y="-660" as="targetPoint"/>
                    </mxGeometry>
                </mxCell>
                <mxCell id="52" value="student" style="ellipse;whiteSpace=wrap;html=1;" vertex="1" parent="1">
                    <mxGeometry x="-1060" y="70" width="120" height="80" as="geometry"/>
                </mxCell>
                <mxCell id="53" value="date" style="ellipse;whiteSpace=wrap;html=1;" vertex="1" parent="1">
                    <mxGeometry x="-1270" y="-80" width="120" height="80" as="geometry"/>
                </mxCell>
                <mxCell id="54" value="time" style="ellipse;whiteSpace=wrap;html=1;" vertex="1" parent="1">
                    <mxGeometry x="-1480" y="70" width="120" height="80" as="geometry"/>
                </mxCell>
                <mxCell id="55" value="" style="endArrow=none;html=1;strokeColor=#000000;fillColor=#000000;shape=flexArrow;entryX=0.5;entryY=1;entryDx=0;entryDy=0;exitX=0.5;exitY=0;exitDx=0;exitDy=0;" edge="1" parent="1" source="13" target="53">
                    <mxGeometry width="50" height="50" relative="1" as="geometry">
                        <mxPoint x="-1294" y="80" as="sourcePoint"/>
                        <mxPoint x="-1244" y="30" as="targetPoint"/>
                    </mxGeometry>
                </mxCell>
                <mxCell id="56" value="" style="endArrow=none;html=1;strokeColor=#000000;fillColor=#000000;shape=flexArrow;exitX=1;exitY=0.5;exitDx=0;exitDy=0;entryX=0;entryY=0.5;entryDx=0;entryDy=0;" edge="1" parent="1" source="54" target="13">
                    <mxGeometry width="50" height="50" relative="1" as="geometry">
                        <mxPoint x="-1230" y="110" as="sourcePoint"/>
                        <mxPoint x="-1100" y="70" as="targetPoint"/>
                    </mxGeometry>
                </mxCell>
                <mxCell id="57" value="" style="endArrow=none;html=1;strokeColor=#000000;fillColor=#000000;shape=flexArrow;entryX=0;entryY=0.5;entryDx=0;entryDy=0;exitX=1;exitY=0.5;exitDx=0;exitDy=0;" edge="1" parent="1" source="13" target="52">
                    <mxGeometry width="50" height="50" relative="1" as="geometry">
                        <mxPoint x="-1294" y="80" as="sourcePoint"/>
                        <mxPoint x="-1244" y="30" as="targetPoint"/>
                    </mxGeometry>
                </mxCell>
                <mxCell id="60" value="" style="endArrow=none;html=1;strokeColor=#000000;fillColor=#000000;shape=flexArrow;exitX=0.5;exitY=0;exitDx=0;exitDy=0;entryX=0.5;entryY=1;entryDx=0;entryDy=0;" edge="1" parent="1" source="3" target="15">
                    <mxGeometry width="50" height="50" relative="1" as="geometry">
                        <mxPoint x="-860" y="-310" as="sourcePoint"/>
                        <mxPoint x="-810" y="-360" as="targetPoint"/>
                    </mxGeometry>
                </mxCell>
                <mxCell id="61" value="age" style="ellipse;whiteSpace=wrap;html=1;" vertex="1" parent="1">
                    <mxGeometry x="-660" y="-200" width="120" height="80" as="geometry"/>
                </mxCell>
                <mxCell id="62" value="program" style="ellipse;whiteSpace=wrap;html=1;" vertex="1" parent="1">
                    <mxGeometry x="-880" y="-40" width="120" height="80" as="geometry"/>
                </mxCell>
                <mxCell id="63" value="&lt;u&gt;name&lt;/u&gt;" style="ellipse;whiteSpace=wrap;html=1;" vertex="1" parent="1">
                    <mxGeometry x="-1100" y="-200" width="120" height="80" as="geometry"/>
                </mxCell>
                <mxCell id="64" value="" style="endArrow=none;html=1;strokeColor=#000000;fillColor=#000000;shape=flexArrow;entryX=0;entryY=0.5;entryDx=0;entryDy=0;exitX=1;exitY=0.5;exitDx=0;exitDy=0;" edge="1" parent="1" source="3" target="61">
                    <mxGeometry width="50" height="50" relative="1" as="geometry">
                        <mxPoint x="-770" y="-130" as="sourcePoint"/>
                        <mxPoint x="-720" y="-180" as="targetPoint"/>
                    </mxGeometry>
                </mxCell>
                <mxCell id="65" value="" style="endArrow=none;html=1;strokeColor=#000000;fillColor=#000000;shape=flexArrow;exitX=1;exitY=0.5;exitDx=0;exitDy=0;entryX=0;entryY=0.5;entryDx=0;entryDy=0;" edge="1" parent="1" source="63" target="3">
                    <mxGeometry width="50" height="50" relative="1" as="geometry">
                        <mxPoint x="-770" y="-130" as="sourcePoint"/>
                        <mxPoint x="-720" y="-180" as="targetPoint"/>
                    </mxGeometry>
                </mxCell>
                <mxCell id="66" value="" style="endArrow=none;html=1;strokeColor=#000000;fillColor=#000000;shape=flexArrow;exitX=0.5;exitY=0;exitDx=0;exitDy=0;entryX=0.5;entryY=1;entryDx=0;entryDy=0;" edge="1" parent="1" source="62" target="3">
                    <mxGeometry width="50" height="50" relative="1" as="geometry">
                        <mxPoint x="-770" y="-130" as="sourcePoint"/>
                        <mxPoint x="-720" y="-180" as="targetPoint"/>
                    </mxGeometry>
                </mxCell>
                <mxCell id="67" value="&lt;u&gt;ID&lt;/u&gt;" style="ellipse;whiteSpace=wrap;html=1;" vertex="1" parent="1">
                    <mxGeometry x="-1120" y="-580" width="145" height="70" as="geometry"/>
                </mxCell>
                <mxCell id="68" value="" style="endArrow=none;html=1;strokeColor=#000000;fillColor=#000000;shape=flexArrow;exitX=1;exitY=0.5;exitDx=0;exitDy=0;entryX=0;entryY=0;entryDx=0;entryDy=0;" edge="1" parent="1" source="67" target="2">
                    <mxGeometry width="50" height="50" relative="1" as="geometry">
                        <mxPoint x="-780" y="-440" as="sourcePoint"/>
                        <mxPoint x="-730" y="-490" as="targetPoint"/>
                    </mxGeometry>
                </mxCell>
            </root>
        </mxGraphModel>
    </diagram>
</mxfile>